<svg width="125" height="29" viewBox="0 0 125 29" fill="none" xmlns="http://www.w3.org/2000/svg">
<mask id="mask0_59_1067" style="mask-type:alpha" maskUnits="userSpaceOnUse" x="2" y="0" width="123" height="26">
<path d="M15.4596 25L14.4796 19.68H9.08957L8.14457 25H2.68457L8.56457 0.744995H15.1446L21.0246 25H15.4596ZM9.82457 15.725H13.7796L11.7846 4.77L9.82457 15.725Z" fill="#FF0404"/>
<path d="M29.2096 0.744995V20.66H36.8396L36.2796 25H23.7146V0.744995H29.2096Z" fill="#FF0404"/>
<path d="M45.512 0.744995V25H40.017V0.744995H45.512ZM57.202 0.744995L51.182 11.665L57.727 25H51.742L45.687 12.05L51.777 0.744995H57.202Z" fill="#FF0404"/>
<path d="M65.8134 0.744995V25H60.3184V0.744995H65.8134ZM77.5034 0.744995L71.4834 11.665L78.0284 25H72.0434L65.9884 12.05L72.0784 0.744995H77.5034Z" fill="#FF0404"/>
<path d="M82.8597 19.47C83.7231 19.47 84.4347 19.7733 84.9947 20.38C85.5547 20.9867 85.8347 21.71 85.8347 22.55C85.8347 23.39 85.5547 24.1133 84.9947 24.72C84.4347 25.3033 83.7231 25.595 82.8597 25.595C81.9731 25.595 81.2497 25.3033 80.6897 24.72C80.1531 24.1133 79.8847 23.39 79.8847 22.55C79.8847 21.71 80.1531 20.9867 80.6897 20.38C81.2497 19.7733 81.9731 19.47 82.8597 19.47Z" fill="#FF0404"/>
<path d="M100.665 25L96.7102 15.655H96.5352H95.2052V25H89.7102V0.744995H96.1852C102.205 0.744995 105.215 3.195 105.215 8.095C105.215 9.51833 104.912 10.8017 104.305 11.945C103.722 13.0883 102.8 13.975 101.54 14.605L106.51 25H100.665ZM96.3252 11.84C97.4918 11.84 98.3318 11.5483 98.8452 10.965C99.3585 10.3583 99.6152 9.40166 99.6152 8.095C99.6152 6.90499 99.3352 6.03 98.7752 5.47C98.2385 4.91 97.3635 4.63 96.1502 4.63H95.2052V11.84H96.3252Z" fill="#FF0404"/>
<path d="M124.774 18C124.774 19.4467 124.47 20.7417 123.864 21.885C123.257 23.005 122.347 23.9033 121.134 24.58C119.92 25.2333 118.427 25.56 116.654 25.56C113.994 25.56 111.975 24.8717 110.599 23.495C109.222 22.1183 108.534 20.2867 108.534 18V0.744995H114.029V17.755C114.029 19.015 114.227 19.9483 114.624 20.555C115.044 21.1617 115.72 21.465 116.654 21.465C117.587 21.465 118.252 21.1617 118.649 20.555C119.069 19.9483 119.279 19.015 119.279 17.755V0.744995H124.774V18Z" fill="#FF0404"/>
</mask>
<g mask="url(#mask0_59_1067)">
<rect x="0.844727" y="21.6216" width="21.4532" height="6.39274" fill="#333333"/>
</g>
</svg>
