<svg width="184" height="29" viewBox="0 0 184 29" xmlns="http://www.w3.org/2000/svg">
<path d="M14.9596 25L13.9796 19.68H8.58957L7.64457 25H2.18457L8.06457 0.744995H14.6446L20.5246 25H14.9596ZM9.32457 15.725H13.2796L11.2846 4.77L9.32457 15.725Z" />
<path d="M28.7096 0.744995V20.66H36.3396L35.7796 25H23.2146V0.744995H28.7096Z" />
<path d="M45.012 0.744995V25H39.517V0.744995H45.012ZM56.702 0.744995L50.682 11.665L57.227 25H51.242L45.187 12.05L51.277 0.744995H56.702Z" />
<path d="M65.3134 0.744995V25H59.8184V0.744995H65.3134ZM77.0034 0.744995L70.9834 11.665L77.5284 25H71.5434L65.4884 12.05L71.5784 0.744995H77.0034Z" />
<path d="M82.3597 19.47C83.2231 19.47 83.9347 19.7733 84.4947 20.38C85.0547 20.9867 85.3347 21.71 85.3347 22.55C85.3347 23.39 85.0547 24.1133 84.4947 24.72C83.9347 25.3033 83.2231 25.595 82.3597 25.595C81.4731 25.595 80.7497 25.3033 80.1897 24.72C79.6531 24.1133 79.3847 23.39 79.3847 22.55C79.3847 21.71 79.6531 20.9867 80.1897 20.38C80.7497 19.7733 81.4731 19.47 82.3597 19.47Z" />
<path d="M100.165 25L96.2102 15.655H96.0352H94.7052V25H89.2102V0.744995H95.6852C101.705 0.744995 104.715 3.195 104.715 8.095C104.715 9.51833 104.412 10.8017 103.805 11.945C103.222 13.0883 102.3 13.975 101.04 14.605L106.01 25H100.165ZM95.8252 11.84C96.9918 11.84 97.8318 11.5483 98.3452 10.965C98.8585 10.3583 99.1152 9.40166 99.1152 8.095C99.1152 6.90499 98.8352 6.03 98.2752 5.47C97.7385 4.91 96.8635 4.63 95.6502 4.63H94.7052V11.84H95.8252Z" />
<path d="M124.274 18C124.274 19.4467 123.97 20.7417 123.364 21.885C122.757 23.005 121.847 23.9033 120.634 24.58C119.42 25.2333 117.927 25.56 116.154 25.56C113.494 25.56 111.475 24.8717 110.099 23.495C108.722 22.1183 108.034 20.2867 108.034 18V0.744995H113.529V17.755C113.529 19.015 113.727 19.9483 114.124 20.555C114.544 21.1617 115.22 21.465 116.154 21.465C117.087 21.465 117.752 21.1617 118.149 20.555C118.569 19.9483 118.779 19.015 118.779 17.755V0.744995H124.274V18Z" />
<path d="M138.6 15V9.78L135 15H134.25V8H135.18V13.23L138.78 8H139.53V15H138.6ZM144.397 10H145.267V15H144.397V12.91H141.807V15H140.937V10H141.807V12.08H144.397V10ZM150.312 10V10.84H148.612V15H147.742V10.84H146.032V10H150.312ZM151.489 12.9C151.575 13.3467 151.779 13.6933 152.099 13.94C152.425 14.1867 152.825 14.31 153.299 14.31C153.959 14.31 154.439 14.0667 154.739 13.58L155.479 14C154.992 14.7533 154.259 15.13 153.279 15.13C152.485 15.13 151.839 14.8833 151.339 14.39C150.845 13.89 150.599 13.26 150.599 12.5C150.599 11.7467 150.842 11.12 151.329 10.62C151.815 10.12 152.445 9.87 153.219 9.87C153.952 9.87 154.549 10.13 155.009 10.65C155.475 11.1633 155.709 11.7833 155.709 12.51C155.709 12.6367 155.699 12.7667 155.679 12.9H151.489ZM153.219 10.69C152.752 10.69 152.365 10.8233 152.059 11.09C151.752 11.35 151.562 11.7 151.489 12.14H154.829C154.755 11.6667 154.569 11.3067 154.269 11.06C153.969 10.8133 153.619 10.69 153.219 10.69ZM159.469 9.87C160.169 9.87 160.765 10.1267 161.259 10.64C161.752 11.1467 161.999 11.7667 161.999 12.5C161.999 13.2333 161.752 13.8567 161.259 14.37C160.765 14.8767 160.169 15.13 159.469 15.13C158.642 15.13 158.012 14.8 157.579 14.14V17H156.709V10H157.579V10.86C158.012 10.2 158.642 9.87 159.469 9.87ZM159.359 14.29C159.859 14.29 160.279 14.12 160.619 13.78C160.959 13.4333 161.129 13.0067 161.129 12.5C161.129 11.9933 160.959 11.57 160.619 11.23C160.279 10.8833 159.859 10.71 159.359 10.71C158.852 10.71 158.429 10.8833 158.089 11.23C157.749 11.57 157.579 11.9933 157.579 12.5C157.579 13.0067 157.749 13.4333 158.089 13.78C158.429 14.12 158.852 14.29 159.359 14.29ZM166.497 10H167.367V15H166.497V12.91H163.907V15H163.037V10H163.907V12.08H166.497V10ZM169.301 12.9C169.388 13.3467 169.591 13.6933 169.911 13.94C170.238 14.1867 170.638 14.31 171.111 14.31C171.771 14.31 172.251 14.0667 172.551 13.58L173.291 14C172.805 14.7533 172.071 15.13 171.091 15.13C170.298 15.13 169.651 14.8833 169.151 14.39C168.658 13.89 168.411 13.26 168.411 12.5C168.411 11.7467 168.655 11.12 169.141 10.62C169.628 10.12 170.258 9.87 171.031 9.87C171.765 9.87 172.361 10.13 172.821 10.65C173.288 11.1633 173.521 11.7833 173.521 12.51C173.521 12.6367 173.511 12.7667 173.491 12.9H169.301ZM171.031 10.69C170.565 10.69 170.178 10.8233 169.871 11.09C169.565 11.35 169.375 11.7 169.301 12.14H172.641C172.568 11.6667 172.381 11.3067 172.081 11.06C171.781 10.8133 171.431 10.69 171.031 10.69ZM178.046 10V10.84H176.346V15H175.476V10.84H173.766V10H178.046ZM178.586 12.35V11.51H182.236V12.35H178.586ZM138.3 20H139.17V25H138.3V24.14C137.867 24.8 137.237 25.13 136.41 25.13C135.71 25.13 135.113 24.8767 134.62 24.37C134.127 23.8567 133.88 23.2333 133.88 22.5C133.88 21.7667 134.127 21.1467 134.62 20.64C135.113 20.1267 135.71 19.87 136.41 19.87C137.237 19.87 137.867 20.2 138.3 20.86V20ZM136.52 24.29C137.027 24.29 137.45 24.12 137.79 23.78C138.13 23.4333 138.3 23.0067 138.3 22.5C138.3 21.9933 138.13 21.57 137.79 21.23C137.45 20.8833 137.027 20.71 136.52 20.71C136.02 20.71 135.6 20.8833 135.26 21.23C134.92 21.57 134.75 21.9933 134.75 22.5C134.75 23.0067 134.92 23.4333 135.26 23.78C135.6 24.12 136.02 24.29 136.52 24.29ZM143.768 20V20.84H141.358V25H140.488V20H143.768ZM144.946 22.9C145.032 23.3467 145.236 23.6933 145.556 23.94C145.882 24.1867 146.282 24.31 146.756 24.31C147.416 24.31 147.896 24.0667 148.196 23.58L148.936 24C148.449 24.7533 147.716 25.13 146.736 25.13C145.942 25.13 145.296 24.8833 144.796 24.39C144.302 23.89 144.056 23.26 144.056 22.5C144.056 21.7467 144.299 21.12 144.786 20.62C145.272 20.12 145.902 19.87 146.676 19.87C147.409 19.87 148.006 20.13 148.466 20.65C148.932 21.1633 149.166 21.7833 149.166 22.51C149.166 22.6367 149.156 22.7667 149.136 22.9H144.946ZM146.676 20.69C146.209 20.69 145.822 20.8233 145.516 21.09C145.209 21.35 145.019 21.7 144.946 22.14H148.286C148.212 21.6667 148.026 21.3067 147.726 21.06C147.426 20.8133 147.076 20.69 146.676 20.69ZM153.626 20H154.496V25H153.626V22.91H151.036V25H150.166V20H151.036V22.08H153.626V20ZM159.54 20V20.84H157.84V25H156.97V20.84H155.26V20H159.54ZM162.457 25.13C161.704 25.13 161.077 24.88 160.577 24.38C160.077 23.8733 159.827 23.2467 159.827 22.5C159.827 21.7533 160.077 21.13 160.577 20.63C161.077 20.1233 161.704 19.87 162.457 19.87C162.951 19.87 163.394 19.99 163.787 20.23C164.181 20.4633 164.474 20.78 164.667 21.18L163.937 21.6C163.811 21.3333 163.614 21.12 163.347 20.96C163.087 20.8 162.791 20.72 162.457 20.72C161.957 20.72 161.537 20.89 161.197 21.23C160.864 21.57 160.697 21.9933 160.697 22.5C160.697 23 160.864 23.42 161.197 23.76C161.537 24.1 161.957 24.27 162.457 24.27C162.791 24.27 163.091 24.1933 163.357 24.04C163.624 23.88 163.827 23.6667 163.967 23.4L164.707 23.83C164.494 24.2233 164.187 24.54 163.787 24.78C163.387 25.0133 162.944 25.13 162.457 25.13ZM169.208 20V20.84H167.508V25H166.638V20.84H164.928V20H169.208ZM173.301 22.43C173.814 22.6433 174.071 23.03 174.071 23.59C174.071 24.0033 173.931 24.3433 173.651 24.61C173.377 24.87 172.984 25 172.471 25H169.971V20H172.271C172.771 20 173.157 20.1267 173.431 20.38C173.704 20.6267 173.841 20.9533 173.841 21.36C173.841 21.84 173.661 22.1967 173.301 22.43ZM172.231 20.78H170.821V22.09H172.231C172.737 22.09 172.991 21.8667 172.991 21.42C172.991 20.9933 172.737 20.78 172.231 20.78ZM172.421 24.21C172.674 24.21 172.867 24.15 173.001 24.03C173.141 23.91 173.211 23.74 173.211 23.52C173.211 23.3133 173.141 23.1533 173.001 23.04C172.867 22.92 172.674 22.86 172.421 22.86H170.821V24.21H172.421ZM179.23 24.37C178.716 24.8767 178.093 25.13 177.36 25.13C176.626 25.13 176.003 24.8767 175.49 24.37C174.983 23.8633 174.73 23.24 174.73 22.5C174.73 21.76 174.983 21.1367 175.49 20.63C176.003 20.1233 176.626 19.87 177.36 19.87C178.093 19.87 178.716 20.1233 179.23 20.63C179.743 21.1367 180 21.76 180 22.5C180 23.24 179.743 23.8633 179.23 24.37ZM177.36 24.28C177.86 24.28 178.28 24.11 178.62 23.77C178.96 23.43 179.13 23.0067 179.13 22.5C179.13 21.9933 178.96 21.57 178.62 21.23C178.28 20.89 177.86 20.72 177.36 20.72C176.866 20.72 176.45 20.89 176.11 21.23C175.77 21.57 175.6 21.9933 175.6 22.5C175.6 23.0067 175.77 23.43 176.11 23.77C176.45 24.11 176.866 24.28 177.36 24.28Z" fill="#333333"/>
<mask id="mask0_59_28" style="mask-type:alpha" maskUnits="userSpaceOnUse" x="2" y="0" width="123" height="26">
<path d="M14.9596 25L13.9796 19.68H8.58957L7.64457 25H2.18457L8.06457 0.744995H14.6446L20.5246 25H14.9596ZM9.32457 15.725H13.2796L11.2846 4.77L9.32457 15.725Z" />
<path d="M28.7096 0.744995V20.66H36.3396L35.7796 25H23.2146V0.744995H28.7096Z" />
<path d="M45.012 0.744995V25H39.517V0.744995H45.012ZM56.702 0.744995L50.682 11.665L57.227 25H51.242L45.187 12.05L51.277 0.744995H56.702Z" />
<path d="M65.3134 0.744995V25H59.8184V0.744995H65.3134ZM77.0034 0.744995L70.9834 11.665L77.5284 25H71.5434L65.4884 12.05L71.5784 0.744995H77.0034Z" />
<path d="M82.3597 19.47C83.2231 19.47 83.9347 19.7733 84.4947 20.38C85.0547 20.9867 85.3347 21.71 85.3347 22.55C85.3347 23.39 85.0547 24.1133 84.4947 24.72C83.9347 25.3033 83.2231 25.595 82.3597 25.595C81.4731 25.595 80.7497 25.3033 80.1897 24.72C79.6531 24.1133 79.3847 23.39 79.3847 22.55C79.3847 21.71 79.6531 20.9867 80.1897 20.38C80.7497 19.7733 81.4731 19.47 82.3597 19.47Z" />
<path d="M100.165 25L96.2102 15.655H96.0352H94.7052V25H89.2102V0.744995H95.6852C101.705 0.744995 104.715 3.195 104.715 8.095C104.715 9.51833 104.412 10.8017 103.805 11.945C103.222 13.0883 102.3 13.975 101.04 14.605L106.01 25H100.165ZM95.8252 11.84C96.9918 11.84 97.8318 11.5483 98.3452 10.965C98.8585 10.3583 99.1152 9.40166 99.1152 8.095C99.1152 6.90499 98.8352 6.03 98.2752 5.47C97.7385 4.91 96.8635 4.63 95.6502 4.63H94.7052V11.84H95.8252Z" />
<path d="M124.274 18C124.274 19.4467 123.97 20.7417 123.364 21.885C122.757 23.005 121.847 23.9033 120.634 24.58C119.42 25.2333 117.927 25.56 116.154 25.56C113.494 25.56 111.475 24.8717 110.099 23.495C108.722 22.1183 108.034 20.2867 108.034 18V0.744995H113.529V17.755C113.529 19.015 113.727 19.9483 114.124 20.555C114.544 21.1617 115.22 21.465 116.154 21.465C117.087 21.465 117.752 21.1617 118.149 20.555C118.569 19.9483 118.779 19.015 118.779 17.755V0.744995H124.274V18Z" />
</mask>
<g mask="url(#mask0_59_28)">
<rect x="0.344727" y="21.6216" width="21.4532" height="6.39274" />
</g>
</svg>
