<svg  viewBox="0 0 600 700" style="display:none;" xmlns="http://www.w3.org/2000/svg">

<symbol id="arrow" viewBox="0 0 6 7">
<path d="M5.43259 4.55671C5.40434 4.58571 5.29764 4.70971 5.19829 4.81171C4.61574 5.45321 3.09599 6.50321 2.30059 6.82371C2.17979 6.87521 1.87437 6.98421 1.7112 6.99121C1.55484 6.99121 1.40579 6.95521 1.26356 6.88221C1.08626 6.78021 0.944028 6.61971 0.866093 6.43021C0.815922 6.29871 0.737988 5.90521 0.737988 5.89821C0.660053 5.46771 0.617188 4.76821 0.617188 3.99521C0.617188 3.25871 0.660052 2.58771 0.723862 2.15071C0.731167 2.14371 0.809102 1.65471 0.894342 1.48721C1.0507 1.18121 1.35611 0.991211 1.68294 0.991211H1.7112C1.92406 0.998711 2.37169 1.18871 2.37169 1.19571C3.12424 1.51671 4.60889 2.51521 5.20559 3.17871C5.20559 3.17871 5.37364 3.34921 5.44669 3.45571C5.56069 3.60871 5.61719 3.79821 5.61719 3.98771C5.61719 4.19921 5.55339 4.39621 5.43259 4.55671Z" />
</symbol>

<symbol id="whatsapp" viewBox="0 0 19 19">
<path d="M16.1542 2.76094C14.3772 0.979687 12.0107 0 9.49576 0C4.30469 0 0.0805804 4.22411 0.0805804 9.41518C0.0805804 11.0734 0.51317 12.6935 1.33594 14.1228L0 19L4.99174 17.6895C6.36585 18.4402 7.91384 18.8346 9.49152 18.8346H9.49576C14.6826 18.8346 19 14.6105 19 9.41942C19 6.90446 17.9313 4.54219 16.1542 2.76094ZM9.49576 17.2484C8.08772 17.2484 6.70938 16.871 5.50915 16.1585L5.225 15.9888L2.26473 16.765L3.05357 13.8768L2.86696 13.5799C2.08237 12.333 1.67098 10.8953 1.67098 9.41518C1.67098 5.10201 5.18259 1.5904 9.5 1.5904C11.5908 1.5904 13.5545 2.40469 15.0304 3.88482C16.5063 5.36495 17.4138 7.32857 17.4096 9.41942C17.4096 13.7368 13.8089 17.2484 9.49576 17.2484ZM13.7877 11.3873C13.5545 11.2685 12.3967 10.7002 12.1804 10.6239C11.9641 10.5433 11.8071 10.5051 11.6502 10.7426C11.4933 10.9801 11.0438 11.506 10.9038 11.6672C10.7681 11.8241 10.6281 11.8453 10.3949 11.7266C9.01228 11.0353 8.10469 10.4924 7.19286 8.92745C6.95112 8.51183 7.4346 8.54152 7.88415 7.64241C7.96049 7.48549 7.92232 7.34978 7.86295 7.23103C7.80357 7.11228 7.33281 5.95446 7.13772 5.4837C6.94688 5.02567 6.75179 5.08929 6.60759 5.0808C6.47188 5.07232 6.31496 5.07232 6.15804 5.07232C6.00112 5.07232 5.74665 5.1317 5.53036 5.36495C5.31406 5.60245 4.70759 6.17076 4.70759 7.32857C4.70759 8.48638 5.55156 9.60603 5.66607 9.76295C5.78482 9.91987 7.32433 12.2949 9.68661 13.317C11.1795 13.9616 11.7647 14.0167 12.5112 13.9065C12.965 13.8386 13.9022 13.3382 14.0973 12.7868C14.2924 12.2355 14.2924 11.7647 14.233 11.6672C14.1779 11.5612 14.021 11.5018 13.7877 11.3873Z" />
</symbol>

<symbol id="viber" viewBox="0 0 20 20">
<path d="M17.4639 1.9475C16.9678 1.49053 14.9603 0.033679 10.4843 0.0141502C10.4843 0.0141502 5.20759 -0.302216 2.63761 2.05686C1.2081 3.48637 0.704255 5.58376 0.649574 8.18109C0.594893 10.7784 0.528495 15.645 5.21931 16.9651H5.22322L5.21931 18.9805C5.21931 18.9805 5.18807 19.7968 5.72706 19.9609C6.37542 20.164 6.75818 19.5429 7.3792 18.8751C7.719 18.5079 8.18769 17.9689 8.54311 17.5588C11.7536 17.8283 14.2182 17.2112 14.4994 17.1214C15.1478 16.9105 18.8153 16.4418 19.4089 11.5752C20.026 6.55239 19.1121 3.38091 17.4639 1.9475ZM18.0068 11.2081C17.5029 15.27 14.5306 15.5278 13.9838 15.7036C13.7495 15.7778 11.5818 16.3168 8.85948 16.141C8.85948 16.141 6.82848 18.5899 6.19575 19.2266C5.98875 19.4336 5.76221 19.4141 5.76612 19.004C5.76612 18.7345 5.78174 15.6567 5.78174 15.6567C5.77784 15.6567 5.77784 15.6567 5.78174 15.6567C1.80568 14.5553 2.04002 10.4113 2.08299 8.24359C2.12595 6.07589 2.53606 4.29877 3.74684 3.10361C5.92235 1.1312 10.4023 1.42413 10.4023 1.42413C14.1869 1.43975 15.9992 2.58023 16.421 2.963C17.8154 4.15816 18.5262 7.01718 18.0068 11.2081ZM12.5778 8.0522C12.5934 8.3881 12.0895 8.41153 12.0739 8.07564C12.031 7.21637 11.6287 6.79845 10.8006 6.75159C10.4647 6.73206 10.496 6.22821 10.828 6.24774C11.9177 6.30633 12.5231 6.93125 12.5778 8.0522ZM13.3706 8.49355C13.4097 6.83751 12.3747 5.5408 10.4101 5.39629C10.0781 5.37285 10.1132 4.86901 10.4452 4.89244C12.7106 5.05649 13.9174 6.61488 13.8745 8.50527C13.8706 8.84117 13.3628 8.82554 13.3706 8.49355ZM15.2063 9.01693C15.2102 9.35282 14.7025 9.35673 14.7025 9.02083C14.6791 5.83764 12.5582 4.10348 9.98434 4.08395C9.65235 4.08005 9.65235 3.58011 9.98434 3.58011C12.8629 3.59964 15.179 5.58767 15.2063 9.01693ZM14.765 12.8485V12.8563C14.3432 13.5984 13.5542 14.4186 12.7418 14.1569L12.734 14.1452C11.9099 13.9147 9.96871 12.9149 8.74231 11.9384C8.10957 11.4385 7.53152 10.8487 7.08626 10.2824C6.68397 9.77855 6.27777 9.18097 5.88329 8.46231C5.05136 6.95859 4.86779 6.2868 4.86779 6.2868C4.60611 5.4744 5.42241 4.68544 6.16841 4.26362H6.17622C6.53555 4.07614 6.87926 4.13863 7.1097 4.41594C7.1097 4.41594 7.59401 4.99399 7.80102 5.27911C7.99631 5.54471 8.25799 5.97043 8.39469 6.20868C8.63295 6.63441 8.48453 7.06795 8.25018 7.24762L7.78149 7.62257C7.54324 7.81395 7.57448 8.16938 7.57448 8.16938C7.57448 8.16938 8.26971 10.798 10.867 11.4619C10.867 11.4619 11.2225 11.4932 11.4138 11.2549L11.7888 10.7862C11.9685 10.5519 12.402 10.4035 12.8277 10.6417C13.4019 10.9659 14.1323 11.4697 14.6166 11.9267C14.89 12.1493 14.9525 12.4891 14.765 12.8485Z" />
</symbol>

<symbol id="burger" viewBox="0 0 29 11">
<path d="M1.55054 1.82416C3.61665 1.82416 19.629 1.82416 27.3769 1.82416"  stroke-width="2" stroke-linecap="square"/>
<path d="M4.9939 9.82416C6.50904 9.82416 18.2514 9.82416 23.9332 9.82416"  stroke-width="2" stroke-linecap="square"/>
</symbol>

<symbol id="check" viewBox="0 0 15 11">
<path d="M1.60547 5.45462L5.86347 9.31176L13.6055 1.31177"  stroke-width="2"/>
</symbol>

<symbol id="close-button" viewBox="0 0 15 16">
<path d="M1.60156 1.82434C2.56156 2.78434 10.0016 10.2243 13.6016 13.8243"  stroke-width="1.75" stroke-linecap="square"/>
<path d="M1.60156 13.8242C2.56156 12.8642 10.0016 5.42418 13.6016 1.82419"  stroke-width="1.75" stroke-linecap="square"/>
</symbol>

<symbol id="logo-dots" viewBox="0 0 125 29">
<mask id="mask0_59_1067" style="mask-type:alpha" maskUnits="userSpaceOnUse" x="2" y="0" width="123" height="26">
<path d="M15.4596 25L14.4796 19.68H9.08957L8.14457 25H2.68457L8.56457 0.744995H15.1446L21.0246 25H15.4596ZM9.82457 15.725H13.7796L11.7846 4.77L9.82457 15.725Z" />
<path d="M29.2096 0.744995V20.66H36.8396L36.2796 25H23.7146V0.744995H29.2096Z" />
<path d="M45.512 0.744995V25H40.017V0.744995H45.512ZM57.202 0.744995L51.182 11.665L57.727 25H51.742L45.687 12.05L51.777 0.744995H57.202Z" />
<path d="M65.8134 0.744995V25H60.3184V0.744995H65.8134ZM77.5034 0.744995L71.4834 11.665L78.0284 25H72.0434L65.9884 12.05L72.0784 0.744995H77.5034Z" />
<path d="M82.8597 19.47C83.7231 19.47 84.4347 19.7733 84.9947 20.38C85.5547 20.9867 85.8347 21.71 85.8347 22.55C85.8347 23.39 85.5547 24.1133 84.9947 24.72C84.4347 25.3033 83.7231 25.595 82.8597 25.595C81.9731 25.595 81.2497 25.3033 80.6897 24.72C80.1531 24.1133 79.8847 23.39 79.8847 22.55C79.8847 21.71 80.1531 20.9867 80.6897 20.38C81.2497 19.7733 81.9731 19.47 82.8597 19.47Z"/>
<path d="M100.665 25L96.7102 15.655H96.5352H95.2052V25H89.7102V0.744995H96.1852C102.205 0.744995 105.215 3.195 105.215 8.095C105.215 9.51833 104.912 10.8017 104.305 11.945C103.722 13.0883 102.8 13.975 101.54 14.605L106.51 25H100.665ZM96.3252 11.84C97.4918 11.84 98.3318 11.5483 98.8452 10.965C99.3585 10.3583 99.6152 9.40166 99.6152 8.095C99.6152 6.90499 99.3352 6.03 98.7752 5.47C98.2385 4.91 97.3635 4.63 96.1502 4.63H95.2052V11.84H96.3252Z" />
<path d="M124.774 18C124.774 19.4467 124.47 20.7417 123.864 21.885C123.257 23.005 122.347 23.9033 121.134 24.58C119.92 25.2333 118.427 25.56 116.654 25.56C113.994 25.56 111.975 24.8717 110.599 23.495C109.222 22.1183 108.534 20.2867 108.534 18V0.744995H114.029V17.755C114.029 19.015 114.227 19.9483 114.624 20.555C115.044 21.1617 115.72 21.465 116.654 21.465C117.587 21.465 118.252 21.1617 118.649 20.555C119.069 19.9483 119.279 19.015 119.279 17.755V0.744995H124.774V18Z" />
</mask>
<g mask="url(#mask0_59_1067)">
<rect x="0.844727" y="21.6216" width="21.4532" height="6.39274" fill="#333333"/>
</g>
</symbol>

<symbol id="logo" viewBox="0 0 123 26">
<path d="M13.4596 25L12.4796 19.68H7.08957L6.14457 25H0.68457L6.56457 0.744995H13.1446L19.0246 25H13.4596ZM7.82457 15.725H11.7796L9.78457 4.77L7.82457 15.725Z" />
<path d="M27.2096 0.744995V20.66H34.8396L34.2796 25H21.7146V0.744995H27.2096Z" />
<path d="M43.512 0.744995V25H38.017V0.744995H43.512ZM55.202 0.744995L49.182 11.665L55.727 25H49.742L43.687 12.05L49.777 0.744995H55.202Z" />
<path d="M63.8134 0.744995V25H58.3184V0.744995H63.8134ZM75.5034 0.744995L69.4834 11.665L76.0284 25H70.0434L63.9884 12.05L70.0784 0.744995H75.5034Z" />
<path d="M80.8597 19.47C81.7231 19.47 82.4347 19.7733 82.9947 20.38C83.5547 20.9867 83.8347 21.71 83.8347 22.55C83.8347 23.39 83.5547 24.1133 82.9947 24.72C82.4347 25.3033 81.7231 25.595 80.8597 25.595C79.9731 25.595 79.2497 25.3033 78.6897 24.72C78.1531 24.1133 77.8847 23.39 77.8847 22.55C77.8847 21.71 78.1531 20.9867 78.6897 20.38C79.2497 19.7733 79.9731 19.47 80.8597 19.47Z" />
<path d="M98.6652 25L94.7102 15.655H94.5352H93.2052V25H87.7102V0.744995H94.1852C100.205 0.744995 103.215 3.195 103.215 8.095C103.215 9.51833 102.912 10.8017 102.305 11.945C101.722 13.0883 100.8 13.975 99.5402 14.605L104.51 25H98.6652ZM94.3252 11.84C95.4918 11.84 96.3318 11.5483 96.8452 10.965C97.3585 10.3583 97.6152 9.40166 97.6152 8.095C97.6152 6.90499 97.3352 6.03 96.7752 5.47C96.2385 4.91 95.3635 4.63 94.1502 4.63H93.2052V11.84H94.3252Z" />
<path d="M122.774 18C122.774 19.4467 122.47 20.7417 121.864 21.885C121.257 23.005 120.347 23.9033 119.134 24.58C117.92 25.2333 116.427 25.56 114.654 25.56C111.994 25.56 109.975 24.8717 108.599 23.495C107.222 22.1183 106.534 20.2867 106.534 18V0.744995H112.029V17.755C112.029 19.015 112.227 19.9483 112.624 20.555C113.044 21.1617 113.72 21.465 114.654 21.465C115.587 21.465 116.252 21.1617 116.649 20.555C117.069 19.9483 117.279 19.015 117.279 17.755V0.744995H122.774V18Z" />
</symbol>

<symbol id="user" viewBox="0 0 141 140">
<path d="M0.798897 70.0943C0.798897 71.6654 0.850619 73.2365 0.960529 74.7946C1.0769 76.6566 1.27733 78.5057 1.54887 80.3418C2.46145 86.5243 4.20562 92.555 6.73403 98.2701C6.8633 98.5546 6.99261 98.839 7.12195 99.1235L7.3159 99.5502C7.38055 99.6924 7.45167 99.8347 7.51632 99.9705C7.60684 100.158 7.69089 100.339 7.7814 100.52C7.89131 100.746 8.00121 100.973 8.11759 101.199C8.13052 101.225 8.14346 101.257 8.16285 101.289C8.25983 101.483 8.35035 101.671 8.4538 101.865C8.47281 101.907 8.4944 101.948 8.51845 101.988C8.62836 102.207 8.74474 102.434 8.86111 102.654C8.99042 102.886 9.11326 103.126 9.24256 103.358C9.5529 103.934 9.87615 104.503 10.2059 105.072C10.3029 105.24 10.3998 105.408 10.5033 105.576C10.5938 105.731 10.6843 105.886 10.7813 106.041C10.846 106.145 10.9106 106.255 10.9753 106.358C11.0787 106.533 11.1821 106.701 11.292 106.875C11.5313 107.257 11.7769 107.638 12.0162 108.02H12.0226C12.1325 108.194 12.2489 108.369 12.3653 108.537V108.543C12.7079 109.061 13.0635 109.578 13.4191 110.089C13.42 110.089 13.4208 110.089 13.4216 110.089C13.4224 110.089 13.4231 110.09 13.4238 110.09C13.4244 110.091 13.4248 110.092 13.4252 110.093C13.4255 110.093 13.4256 110.094 13.4256 110.095C13.7101 110.509 14.0075 110.91 14.2984 111.311V111.317C14.4924 111.569 14.6799 111.828 14.8738 112.08C15.029 112.287 15.1906 112.5 15.3522 112.707C15.3846 112.752 15.4234 112.791 15.4557 112.836V112.843C15.501 112.901 15.5462 112.953 15.5915 113.011C16.2768 113.89 16.9837 114.75 17.7121 115.591L17.8285 115.726C17.8673 115.772 17.9125 115.817 17.9513 115.869C18.016 115.94 18.0741 116.011 18.1388 116.082C18.197 116.153 18.2616 116.224 18.3263 116.295C22.1234 120.573 26.4289 124.37 31.147 127.603C31.7741 128.036 32.4142 128.456 33.0542 128.864C33.2159 128.967 33.3775 129.071 33.5391 129.168C33.5844 129.2 33.6361 129.232 33.6814 129.265C33.7719 129.316 33.8559 129.368 33.9464 129.426C34.0305 129.478 34.1145 129.53 34.205 129.581C34.5477 129.795 34.8968 130.002 35.246 130.209C35.33 130.26 35.4205 130.312 35.511 130.364C35.5951 130.409 35.6856 130.461 35.7761 130.512C35.7761 130.519 35.7761 130.519 35.7826 130.519H35.789V130.525H35.7955C36.2287 130.778 36.6683 131.023 37.1144 131.262C37.3536 131.392 37.5993 131.528 37.845 131.65C38.401 131.954 38.9635 132.245 39.526 132.523C39.7264 132.62 39.9333 132.717 40.1337 132.821C40.3018 132.898 40.4699 132.982 40.638 133.06C40.6897 133.086 40.735 133.105 40.7802 133.131C40.9225 133.196 41.0583 133.26 41.2005 133.325C41.3557 133.396 41.5108 133.467 41.6595 133.538C41.8341 133.616 42.0022 133.693 42.1768 133.765C42.8233 134.055 43.4763 134.333 44.1293 134.599C46.4694 135.558 48.8609 136.387 51.2928 137.081C51.4027 137.114 51.5191 137.146 51.6355 137.178C52.6764 137.469 53.7238 137.734 54.7776 137.973C56.6202 138.4 58.4801 138.749 60.3572 139.021H60.3701C60.5964 139.053 60.8162 139.085 61.0425 139.118C61.0619 139.118 61.0813 139.124 61.1071 139.124C61.1071 139.131 61.1071 139.131 61.1136 139.124C61.3593 139.157 61.6114 139.189 61.8571 139.221C61.8739 139.226 61.8914 139.228 61.9088 139.228C62.1416 139.26 62.3808 139.286 62.6136 139.312C62.8657 139.338 63.1178 139.363 63.37 139.389C63.5639 139.409 63.7579 139.428 63.9519 139.447C63.9685 139.453 63.9861 139.455 64.0036 139.454C64.1782 139.467 64.3527 139.486 64.5273 139.499H64.5531C64.7019 139.512 64.857 139.525 65.0057 139.538C66.8095 139.68 68.6198 139.745 70.456 139.745C72.4408 139.745 74.4127 139.667 76.3588 139.499H76.3782C76.7984 139.46 77.2122 139.422 77.626 139.383C77.7359 139.37 77.8393 139.363 77.9492 139.35C77.9686 139.35 77.9945 139.344 78.0139 139.344C78.0462 139.338 78.0785 139.338 78.1173 139.331C78.1348 139.332 78.1523 139.33 78.169 139.325C78.3113 139.312 78.4535 139.292 78.6022 139.279L79.0871 139.221C79.2487 139.202 79.4104 139.176 79.572 139.157C79.6108 139.15 79.6431 139.15 79.6819 139.144C79.7983 139.131 79.9147 139.111 80.0311 139.092C80.0892 139.085 80.1474 139.079 80.1991 139.073C80.3155 139.053 80.4254 139.04 80.5418 139.021H80.5483C84.096 138.51 87.5981 137.721 91.022 136.661C91.2031 136.603 91.3841 136.551 91.5651 136.493C91.5716 136.493 91.578 136.486 91.5845 136.486C91.6362 136.467 91.6944 136.454 91.7461 136.435C92.231 136.28 92.7095 136.118 93.1879 135.95C93.8474 135.73 94.5004 135.491 95.1534 135.245C95.3279 135.174 95.5025 135.109 95.677 135.038C96.0326 134.902 96.3818 134.76 96.7309 134.618C97.3257 134.379 97.9205 134.127 98.5088 133.868C99.0584 133.622 99.6015 133.377 100.145 133.118C100.158 133.112 100.177 133.112 100.19 133.099C100.313 133.04 100.435 132.982 100.552 132.924H100.558C103.536 131.495 106.407 129.855 109.151 128.017C110.03 127.429 110.896 126.821 111.75 126.194C112.435 125.683 113.107 125.166 113.78 124.636C117.097 121.997 120.168 119.063 122.954 115.869V115.862C123.155 115.642 123.342 115.416 123.536 115.19C123.568 115.157 123.594 115.125 123.62 115.099C123.743 114.951 123.859 114.808 123.982 114.666V114.66C124.144 114.472 124.305 114.278 124.461 114.084C124.499 114.039 124.532 114 124.564 113.961V113.955C124.693 113.8 124.816 113.645 124.945 113.483C125.01 113.405 125.068 113.328 125.133 113.25V113.244C125.514 112.765 125.883 112.287 126.251 111.795C126.348 111.666 126.445 111.53 126.549 111.395C127.014 110.767 127.467 110.127 127.907 109.487V109.481C128.075 109.242 128.236 108.996 128.404 108.757C128.566 108.511 128.728 108.265 128.889 108.02C129.051 107.761 129.219 107.509 129.381 107.25L129.4 107.212C129.562 106.966 129.723 106.707 129.878 106.455C130.001 106.248 130.124 106.048 130.247 105.847C130.325 105.712 130.409 105.576 130.486 105.434C130.517 105.39 130.545 105.345 130.57 105.298C130.751 104.981 130.932 104.664 131.113 104.348C131.327 103.979 131.534 103.604 131.74 103.229C131.818 103.074 131.902 102.919 131.986 102.764C132.018 102.712 132.044 102.66 132.07 102.608C132.167 102.427 132.264 102.24 132.355 102.052C132.452 101.871 132.549 101.684 132.646 101.496C132.736 101.315 132.833 101.128 132.924 100.94C132.995 100.798 133.059 100.656 133.13 100.514C133.135 100.502 133.142 100.491 133.15 100.481C133.182 100.41 133.215 100.346 133.24 100.281C133.248 100.271 133.255 100.26 133.26 100.249C133.331 100.106 133.396 99.9576 133.467 99.8153C133.557 99.6279 133.641 99.4339 133.732 99.2464C133.79 99.1171 133.855 98.9813 133.913 98.8456C133.997 98.6581 134.087 98.4706 134.165 98.2766C134.255 98.0826 134.339 97.8887 134.424 97.6883C134.448 97.6399 134.469 97.5903 134.488 97.5396C134.533 97.4491 134.566 97.3585 134.605 97.268C134.708 97.0288 134.811 96.7831 134.908 96.5439C135.025 96.2724 135.135 95.9943 135.238 95.7228C135.342 95.4707 135.439 95.2121 135.536 94.9535L135.574 94.863C137.081 90.8952 138.223 86.7988 138.988 82.6242V82.6177C139.419 80.2343 139.728 77.8304 139.913 75.4153C139.919 75.2796 139.932 75.1503 139.938 75.021C140.055 73.3853 140.107 71.7431 140.107 70.0944C140.107 69.3638 140.094 68.6397 140.074 67.9156C139.623 52.7716 134.223 38.1923 124.7 26.4085C124.493 26.1498 124.286 25.8912 124.073 25.6326C123.859 25.374 123.639 25.1219 123.426 24.8697C116.339 16.5697 107.4 10.0511 97.331 5.8394C87.262 1.62776 76.3443 -0.159099 65.458 0.622897C54.5717 1.40489 44.0215 4.73387 34.6578 10.3414C25.2942 15.949 17.3791 23.6782 11.5507 32.9061C11.2339 33.4104 10.9171 33.9211 10.6132 34.4319C10.3029 34.9491 10.0055 35.4664 9.70808 35.9901C3.85095 46.4012 0.782119 58.1487 0.798897 70.0943Z" />
<path d="M36.3368 131.196C36.924 131.517 37.5181 131.825 38.1122 132.118C38.3238 132.221 38.5423 132.323 38.754 132.432C38.9316 132.514 39.1091 132.603 39.2866 132.685C39.3413 132.712 39.3891 132.733 39.4369 132.76C39.5871 132.828 39.7305 132.897 39.8807 132.965C40.0446 133.04 40.2085 133.115 40.3655 133.19C40.5499 133.272 40.7274 133.354 40.9118 133.429C41.5946 133.736 42.2843 134.03 42.9739 134.31C45.4455 135.323 47.9713 136.199 50.5397 136.932C50.6558 136.966 50.7787 137 50.9016 137.035C52.001 137.342 53.1072 137.622 54.2202 137.874C56.1663 138.325 58.1305 138.694 60.113 138.981H60.1267C60.3657 139.015 60.5978 139.049 60.8368 139.083C60.8573 139.083 60.8778 139.09 60.9051 139.09C60.9051 139.097 60.9051 139.097 60.9119 139.09C61.1714 139.124 61.4377 139.158 61.6972 139.192C61.7149 139.198 61.7334 139.2 61.7518 139.199C61.9976 139.233 62.2503 139.261 62.4961 139.288C62.7624 139.315 63.0287 139.343 63.295 139.37C63.4999 139.39 63.7047 139.411 63.9096 139.431C63.9271 139.437 63.9457 139.44 63.9642 139.438C64.1486 139.452 64.3329 139.472 64.5173 139.486H64.5446C64.7017 139.5 64.8655 139.513 65.0226 139.527C66.9277 139.677 68.8396 139.745 70.7789 139.745C72.8752 139.745 74.9578 139.663 77.0131 139.486H77.0336C77.4774 139.445 77.9145 139.404 78.3515 139.363C78.4675 139.349 78.5768 139.342 78.6929 139.329C78.7134 139.329 78.7407 139.322 78.7612 139.322C78.7953 139.315 78.8295 139.315 78.8704 139.308C78.8889 139.309 78.9073 139.307 78.925 139.302C79.0753 139.288 79.2255 139.267 79.3825 139.254L79.8947 139.192C80.0654 139.172 80.2361 139.144 80.4068 139.124C80.4478 139.117 80.4819 139.117 80.5229 139.11C80.6458 139.097 80.7687 139.076 80.8916 139.056C80.9531 139.049 81.0145 139.042 81.0691 139.035C81.1921 139.015 81.3081 139.001 81.431 138.981H81.4379C85.1848 138.441 88.8835 137.608 92.4997 136.488C92.6909 136.427 92.8821 136.372 93.0733 136.311C92.1917 132.199 90.3766 128.345 87.7682 125.046C85.1599 121.748 81.8282 119.093 78.0305 117.287C78.9699 116.392 79.6192 115.236 79.8947 113.968C80.0719 113.151 80.086 112.307 79.936 111.485C79.786 110.662 79.4749 109.877 79.0206 109.175C78.1346 107.814 76.7444 106.861 75.1558 106.526L65.0362 104.409C63.4072 104.091 61.7187 104.43 60.3377 105.35C58.9568 106.271 57.9951 107.699 57.6617 109.325C57.5584 109.824 57.5126 110.332 57.5251 110.841C47.7811 117.328 40.7684 124.054 36.3368 131.196Z" />
<path d="M66.2162 100.411C77.8599 100.411 87.299 90.9721 87.299 79.3284C87.299 67.6847 77.8599 58.2456 66.2162 58.2456C54.5725 58.2456 45.1334 67.6847 45.1334 79.3284C45.1334 90.9721 54.5725 100.411 66.2162 100.411Z" />
<path d="M53.0745 97.5054C50.8262 95.9696 48.5304 93.0185 46.9976 90.8067C44.9666 87.8994 43.5691 84.5977 42.8957 81.1157C42.2223 77.6337 42.288 74.0491 43.0886 70.5941C43.3439 69.2127 43.9714 67.9272 44.9034 66.876C45.8964 65.8934 47.5182 65.4275 48.7302 66.1224C48.3994 65.2367 48.2538 64.2926 48.3021 63.3484C48.3504 62.4043 48.5917 61.48 49.0112 60.6327C49.863 58.9409 51.0973 57.4709 52.6161 56.3391C55.5208 54.1023 58.9769 52.6937 62.6176 52.2626C66.2584 51.8316 69.9479 52.3943 73.2946 53.8909C74.6115 54.5012 72.4485 49.7882 73.8269 50.2427C75.1962 50.7729 76.7186 50.7462 78.0684 50.1682C79.3649 49.5156 83.6621 53.3929 83.1648 52.0293C84.1487 52.476 85.0035 53.1644 85.6496 54.0304C86.2958 54.8965 86.7122 55.9119 86.8603 56.9822C87.0083 58.0526 86.883 59.1429 86.4962 60.1518C86.1093 61.1607 85.4734 62.0552 84.6478 62.7522C83.5597 63.6706 82.2012 64.1995 81.0098 64.9793C78.9224 66.4479 77.4449 68.6298 76.8563 71.1132C76.2677 73.5965 76.6086 76.2095 77.8148 78.4587C76.5614 77.6533 75.186 77.0557 73.742 76.6888C73.0175 76.512 72.2613 76.5107 71.5363 76.6851C70.8112 76.8595 70.1383 77.2045 69.5735 77.6914C69.1015 78.2315 68.745 78.8624 68.5257 79.5453C68.3065 80.2282 68.2292 80.9488 68.2985 81.6627C68.3458 83.0934 68.6861 84.5029 68.7244 85.9339C68.8365 90.1327 71.0852 98.1156 67.8297 100.347C65.2606 102.109 56.1442 99.6022 53.0745 97.5054Z" />
</symbol>
</svg>

