<svg  viewBox="0 0 600 700" style="display:none;" xmlns="http://www.w3.org/2000/svg">

<symbol id="arrow" viewBox="0 0 6 7">
<path d="M5.43259 4.55671C5.40434 4.58571 5.29764 4.70971 5.19829 4.81171C4.61574 5.45321 3.09599 6.50321 2.30059 6.82371C2.17979 6.87521 1.87437 6.98421 1.7112 6.99121C1.55484 6.99121 1.40579 6.95521 1.26356 6.88221C1.08626 6.78021 0.944028 6.61971 0.866093 6.43021C0.815922 6.29871 0.737988 5.90521 0.737988 5.89821C0.660053 5.46771 0.617188 4.76821 0.617188 3.99521C0.617188 3.25871 0.660052 2.58771 0.723862 2.15071C0.731167 2.14371 0.809102 1.65471 0.894342 1.48721C1.0507 1.18121 1.35611 0.991211 1.68294 0.991211H1.7112C1.92406 0.998711 2.37169 1.18871 2.37169 1.19571C3.12424 1.51671 4.60889 2.51521 5.20559 3.17871C5.20559 3.17871 5.37364 3.34921 5.44669 3.45571C5.56069 3.60871 5.61719 3.79821 5.61719 3.98771C5.61719 4.19921 5.55339 4.39621 5.43259 4.55671Z" />
</symbol>

<symbol id="whatsapp" viewBox="0 0 19 19">
<path d="M16.1542 2.76094C14.3772 0.979687 12.0107 0 9.49576 0C4.30469 0 0.0805804 4.22411 0.0805804 9.41518C0.0805804 11.0734 0.51317 12.6935 1.33594 14.1228L0 19L4.99174 17.6895C6.36585 18.4402 7.91384 18.8346 9.49152 18.8346H9.49576C14.6826 18.8346 19 14.6105 19 9.41942C19 6.90446 17.9313 4.54219 16.1542 2.76094ZM9.49576 17.2484C8.08772 17.2484 6.70938 16.871 5.50915 16.1585L5.225 15.9888L2.26473 16.765L3.05357 13.8768L2.86696 13.5799C2.08237 12.333 1.67098 10.8953 1.67098 9.41518C1.67098 5.10201 5.18259 1.5904 9.5 1.5904C11.5908 1.5904 13.5545 2.40469 15.0304 3.88482C16.5063 5.36495 17.4138 7.32857 17.4096 9.41942C17.4096 13.7368 13.8089 17.2484 9.49576 17.2484ZM13.7877 11.3873C13.5545 11.2685 12.3967 10.7002 12.1804 10.6239C11.9641 10.5433 11.8071 10.5051 11.6502 10.7426C11.4933 10.9801 11.0438 11.506 10.9038 11.6672C10.7681 11.8241 10.6281 11.8453 10.3949 11.7266C9.01228 11.0353 8.10469 10.4924 7.19286 8.92745C6.95112 8.51183 7.4346 8.54152 7.88415 7.64241C7.96049 7.48549 7.92232 7.34978 7.86295 7.23103C7.80357 7.11228 7.33281 5.95446 7.13772 5.4837C6.94688 5.02567 6.75179 5.08929 6.60759 5.0808C6.47188 5.07232 6.31496 5.07232 6.15804 5.07232C6.00112 5.07232 5.74665 5.1317 5.53036 5.36495C5.31406 5.60245 4.70759 6.17076 4.70759 7.32857C4.70759 8.48638 5.55156 9.60603 5.66607 9.76295C5.78482 9.91987 7.32433 12.2949 9.68661 13.317C11.1795 13.9616 11.7647 14.0167 12.5112 13.9065C12.965 13.8386 13.9022 13.3382 14.0973 12.7868C14.2924 12.2355 14.2924 11.7647 14.233 11.6672C14.1779 11.5612 14.021 11.5018 13.7877 11.3873Z" />
</symbol>

<symbol id="viber" viewBox="0 0 20 20">
<path d="M17.4639 1.9475C16.9678 1.49053 14.9603 0.033679 10.4843 0.0141502C10.4843 0.0141502 5.20759 -0.302216 2.63761 2.05686C1.2081 3.48637 0.704255 5.58376 0.649574 8.18109C0.594893 10.7784 0.528495 15.645 5.21931 16.9651H5.22322L5.21931 18.9805C5.21931 18.9805 5.18807 19.7968 5.72706 19.9609C6.37542 20.164 6.75818 19.5429 7.3792 18.8751C7.719 18.5079 8.18769 17.9689 8.54311 17.5588C11.7536 17.8283 14.2182 17.2112 14.4994 17.1214C15.1478 16.9105 18.8153 16.4418 19.4089 11.5752C20.026 6.55239 19.1121 3.38091 17.4639 1.9475ZM18.0068 11.2081C17.5029 15.27 14.5306 15.5278 13.9838 15.7036C13.7495 15.7778 11.5818 16.3168 8.85948 16.141C8.85948 16.141 6.82848 18.5899 6.19575 19.2266C5.98875 19.4336 5.76221 19.4141 5.76612 19.004C5.76612 18.7345 5.78174 15.6567 5.78174 15.6567C5.77784 15.6567 5.77784 15.6567 5.78174 15.6567C1.80568 14.5553 2.04002 10.4113 2.08299 8.24359C2.12595 6.07589 2.53606 4.29877 3.74684 3.10361C5.92235 1.1312 10.4023 1.42413 10.4023 1.42413C14.1869 1.43975 15.9992 2.58023 16.421 2.963C17.8154 4.15816 18.5262 7.01718 18.0068 11.2081ZM12.5778 8.0522C12.5934 8.3881 12.0895 8.41153 12.0739 8.07564C12.031 7.21637 11.6287 6.79845 10.8006 6.75159C10.4647 6.73206 10.496 6.22821 10.828 6.24774C11.9177 6.30633 12.5231 6.93125 12.5778 8.0522ZM13.3706 8.49355C13.4097 6.83751 12.3747 5.5408 10.4101 5.39629C10.0781 5.37285 10.1132 4.86901 10.4452 4.89244C12.7106 5.05649 13.9174 6.61488 13.8745 8.50527C13.8706 8.84117 13.3628 8.82554 13.3706 8.49355ZM15.2063 9.01693C15.2102 9.35282 14.7025 9.35673 14.7025 9.02083C14.6791 5.83764 12.5582 4.10348 9.98434 4.08395C9.65235 4.08005 9.65235 3.58011 9.98434 3.58011C12.8629 3.59964 15.179 5.58767 15.2063 9.01693ZM14.765 12.8485V12.8563C14.3432 13.5984 13.5542 14.4186 12.7418 14.1569L12.734 14.1452C11.9099 13.9147 9.96871 12.9149 8.74231 11.9384C8.10957 11.4385 7.53152 10.8487 7.08626 10.2824C6.68397 9.77855 6.27777 9.18097 5.88329 8.46231C5.05136 6.95859 4.86779 6.2868 4.86779 6.2868C4.60611 5.4744 5.42241 4.68544 6.16841 4.26362H6.17622C6.53555 4.07614 6.87926 4.13863 7.1097 4.41594C7.1097 4.41594 7.59401 4.99399 7.80102 5.27911C7.99631 5.54471 8.25799 5.97043 8.39469 6.20868C8.63295 6.63441 8.48453 7.06795 8.25018 7.24762L7.78149 7.62257C7.54324 7.81395 7.57448 8.16938 7.57448 8.16938C7.57448 8.16938 8.26971 10.798 10.867 11.4619C10.867 11.4619 11.2225 11.4932 11.4138 11.2549L11.7888 10.7862C11.9685 10.5519 12.402 10.4035 12.8277 10.6417C13.4019 10.9659 14.1323 11.4697 14.6166 11.9267C14.89 12.1493 14.9525 12.4891 14.765 12.8485Z" />
</symbol>

<symbol id="burger" viewBox="0 0 29 11">
<path d="M1.55054 1.82416C3.61665 1.82416 19.629 1.82416 27.3769 1.82416"  stroke-width="2" stroke-linecap="square"/>
<path d="M4.9939 9.82416C6.50904 9.82416 18.2514 9.82416 23.9332 9.82416"  stroke-width="2" stroke-linecap="square"/>
</symbol>

<symbol id="check" viewBox="0 0 15 11">
<path d="M1.60547 5.45462L5.86347 9.31176L13.6055 1.31177"  stroke-width="2"/>
</symbol>

<symbol id="close-button" viewBox="0 0 15 16">
<path d="M1.60156 1.82434C2.56156 2.78434 10.0016 10.2243 13.6016 13.8243"  stroke-width="1.75" stroke-linecap="square"/>
<path d="M1.60156 13.8242C2.56156 12.8642 10.0016 5.42418 13.6016 1.82419"  stroke-width="1.75" stroke-linecap="square"/>
</symbol>

<symbol id="logo-dots" viewBox="0 0 125 29">
<mask id="mask0_59_1067" style="mask-type:alpha" maskUnits="userSpaceOnUse" x="2" y="0" width="123" height="26">
<path d="M15.4596 25L14.4796 19.68H9.08957L8.14457 25H2.68457L8.56457 0.744995H15.1446L21.0246 25H15.4596ZM9.82457 15.725H13.7796L11.7846 4.77L9.82457 15.725Z" />
<path d="M29.2096 0.744995V20.66H36.8396L36.2796 25H23.7146V0.744995H29.2096Z" />
<path d="M45.512 0.744995V25H40.017V0.744995H45.512ZM57.202 0.744995L51.182 11.665L57.727 25H51.742L45.687 12.05L51.777 0.744995H57.202Z" />
<path d="M65.8134 0.744995V25H60.3184V0.744995H65.8134ZM77.5034 0.744995L71.4834 11.665L78.0284 25H72.0434L65.9884 12.05L72.0784 0.744995H77.5034Z" />
<path d="M82.8597 19.47C83.7231 19.47 84.4347 19.7733 84.9947 20.38C85.5547 20.9867 85.8347 21.71 85.8347 22.55C85.8347 23.39 85.5547 24.1133 84.9947 24.72C84.4347 25.3033 83.7231 25.595 82.8597 25.595C81.9731 25.595 81.2497 25.3033 80.6897 24.72C80.1531 24.1133 79.8847 23.39 79.8847 22.55C79.8847 21.71 80.1531 20.9867 80.6897 20.38C81.2497 19.7733 81.9731 19.47 82.8597 19.47Z"/>
<path d="M100.665 25L96.7102 15.655H96.5352H95.2052V25H89.7102V0.744995H96.1852C102.205 0.744995 105.215 3.195 105.215 8.095C105.215 9.51833 104.912 10.8017 104.305 11.945C103.722 13.0883 102.8 13.975 101.54 14.605L106.51 25H100.665ZM96.3252 11.84C97.4918 11.84 98.3318 11.5483 98.8452 10.965C99.3585 10.3583 99.6152 9.40166 99.6152 8.095C99.6152 6.90499 99.3352 6.03 98.7752 5.47C98.2385 4.91 97.3635 4.63 96.1502 4.63H95.2052V11.84H96.3252Z" />
<path d="M124.774 18C124.774 19.4467 124.47 20.7417 123.864 21.885C123.257 23.005 122.347 23.9033 121.134 24.58C119.92 25.2333 118.427 25.56 116.654 25.56C113.994 25.56 111.975 24.8717 110.599 23.495C109.222 22.1183 108.534 20.2867 108.534 18V0.744995H114.029V17.755C114.029 19.015 114.227 19.9483 114.624 20.555C115.044 21.1617 115.72 21.465 116.654 21.465C117.587 21.465 118.252 21.1617 118.649 20.555C119.069 19.9483 119.279 19.015 119.279 17.755V0.744995H124.774V18Z" />
</mask>
<g mask="url(#mask0_59_1067)">
<rect x="0.844727" y="21.6216" width="21.4532" height="6.39274" fill="#333333"/>
</g>
</symbol>

<symbol id="logo" viewBox="0 0 123 26">
<path d="M13.4596 25L12.4796 19.68H7.08957L6.14457 25H0.68457L6.56457 0.744995H13.1446L19.0246 25H13.4596ZM7.82457 15.725H11.7796L9.78457 4.77L7.82457 15.725Z" />
<path d="M27.2096 0.744995V20.66H34.8396L34.2796 25H21.7146V0.744995H27.2096Z" />
<path d="M43.512 0.744995V25H38.017V0.744995H43.512ZM55.202 0.744995L49.182 11.665L55.727 25H49.742L43.687 12.05L49.777 0.744995H55.202Z" />
<path d="M63.8134 0.744995V25H58.3184V0.744995H63.8134ZM75.5034 0.744995L69.4834 11.665L76.0284 25H70.0434L63.9884 12.05L70.0784 0.744995H75.5034Z" />
<path d="M80.8597 19.47C81.7231 19.47 82.4347 19.7733 82.9947 20.38C83.5547 20.9867 83.8347 21.71 83.8347 22.55C83.8347 23.39 83.5547 24.1133 82.9947 24.72C82.4347 25.3033 81.7231 25.595 80.8597 25.595C79.9731 25.595 79.2497 25.3033 78.6897 24.72C78.1531 24.1133 77.8847 23.39 77.8847 22.55C77.8847 21.71 78.1531 20.9867 78.6897 20.38C79.2497 19.7733 79.9731 19.47 80.8597 19.47Z" />
<path d="M98.6652 25L94.7102 15.655H94.5352H93.2052V25H87.7102V0.744995H94.1852C100.205 0.744995 103.215 3.195 103.215 8.095C103.215 9.51833 102.912 10.8017 102.305 11.945C101.722 13.0883 100.8 13.975 99.5402 14.605L104.51 25H98.6652ZM94.3252 11.84C95.4918 11.84 96.3318 11.5483 96.8452 10.965C97.3585 10.3583 97.6152 9.40166 97.6152 8.095C97.6152 6.90499 97.3352 6.03 96.7752 5.47C96.2385 4.91 95.3635 4.63 94.1502 4.63H93.2052V11.84H94.3252Z" />
<path d="M122.774 18C122.774 19.4467 122.47 20.7417 121.864 21.885C121.257 23.005 120.347 23.9033 119.134 24.58C117.92 25.2333 116.427 25.56 114.654 25.56C111.994 25.56 109.975 24.8717 108.599 23.495C107.222 22.1183 106.534 20.2867 106.534 18V0.744995H112.029V17.755C112.029 19.015 112.227 19.9483 112.624 20.555C113.044 21.1617 113.72 21.465 114.654 21.465C115.587 21.465 116.252 21.1617 116.649 20.555C117.069 19.9483 117.279 19.015 117.279 17.755V0.744995H122.774V18Z" />
</symbol>


</svg>

